<?xml version="1.0" encoding="UTF-8" standalone="no"?>
<!-- Generator: Adobe Illustrator 19.0.0, SVG Export Plug-In . SVG Version: 6.00 Build 0)  -->

<svg
   xmlns:dc="http://purl.org/dc/elements/1.1/"
   xmlns:cc="http://creativecommons.org/ns#"
   xmlns:rdf="http://www.w3.org/1999/02/22-rdf-syntax-ns#"
   xmlns:svg="http://www.w3.org/2000/svg"
   xmlns="http://www.w3.org/2000/svg"
   xmlns:sodipodi="http://sodipodi.sourceforge.net/DTD/sodipodi-0.dtd"
   xmlns:inkscape="http://www.inkscape.org/namespaces/inkscape"
   version="1.1"
   id="Layer_1"
   x="0px"
   y="0px"
   viewBox="0 0 512 512"
   style="enable-background:new 0 0 512 512;"
   xml:space="preserve"
   inkscape:version="0.91 r13725"
   sodipodi:docname="bored.svg"><metadata
     id="metadata3547"><rdf:RDF><cc:Work
         rdf:about=""><dc:format>image/svg+xml</dc:format><dc:type
           rdf:resource="http://purl.org/dc/dcmitype/StillImage" /></cc:Work></rdf:RDF></metadata><defs
     id="defs3545" /><sodipodi:namedview
     pagecolor="#ffffff"
     bordercolor="#666666"
     borderopacity="1"
     objecttolerance="10"
     gridtolerance="10"
     guidetolerance="10"
     inkscape:pageopacity="0"
     inkscape:pageshadow="2"
     inkscape:window-width="1366"
     inkscape:window-height="705"
     id="namedview3543"
     showgrid="false"
     inkscape:zoom="0.2799099"
     inkscape:cx="119.81955"
     inkscape:cy="256"
     inkscape:window-x="0"
     inkscape:window-y="30"
     inkscape:window-maximized="1"
     inkscape:current-layer="Layer_1" /><circle
     style="fill:#ff5722;fill-opacity:1"
     cx="256"
     cy="256"
     r="206"
     id="circle3489" /><circle
     style="fill:#ffdc8e;fill-opacity:1"
     cx="256"
     cy="256"
     r="142.222"
     id="circle3493" /><g
     id="g3497"><path
       style="fill:#272525;"
       d="M196.525,263.758c-17.11,0-31.03-13.921-31.03-31.03c0-4.284,3.474-7.758,7.758-7.758   s7.758,3.474,7.758,7.758c0,8.556,6.959,15.515,15.515,15.515s15.515-6.959,15.515-15.515c0-4.284,3.474-7.758,7.758-7.758   s7.758,3.474,7.758,7.758C227.557,249.837,213.635,263.758,196.525,263.758z"
       id="path3499" /><path
       style="fill:#272525;"
       d="M315.475,263.758c-17.11,0-31.03-13.921-31.03-31.03c0-4.284,3.474-7.758,7.758-7.758   s7.758,3.474,7.758,7.758c0,8.556,6.959,15.515,15.515,15.515c8.556,0,15.515-6.959,15.515-15.515c0-4.284,3.474-7.758,7.758-7.758   s7.758,3.474,7.758,7.758C346.505,249.837,332.583,263.758,315.475,263.758z"
       id="path3501" /></g><ellipse
     style="fill:#C92F00;"
     cx="256"
     cy="305.993"
     rx="15.515"
     ry="24.204"
     id="ellipse3503" /><g
     id="g3507"><path
       style="fill:#FFFFFF;"
       d="M398.222,138.559h-42.667c-3.138,0-5.966-1.891-7.166-4.789s-0.538-6.234,1.683-8.452l29.422-29.424   h-23.938c-4.284,0-7.758-3.474-7.758-7.758c0-4.284,3.474-7.758,7.758-7.758h42.667c3.138,0,5.966,1.891,7.166,4.789   c1.2,2.898,0.538,6.234-1.683,8.452l-29.422,29.424h23.938c4.284,0,7.758,3.474,7.758,7.758S402.506,138.559,398.222,138.559z"
       id="path3509" /><path
       style="fill:#FFFFFF;"
       d="M444.768,263.758h-29.306c-3.138,0-5.966-1.891-7.166-4.789c-1.2-2.898-0.538-6.234,1.683-8.452   l16.062-16.063h-10.578c-4.284,0-7.758-3.474-7.758-7.758s3.474-7.758,7.758-7.758h29.306c3.138,0,5.966,1.891,7.166,4.789   c1.2,2.898,0.538,6.234-1.683,8.452l-16.062,16.063h10.578c4.284,0,7.758,3.474,7.758,7.758   C452.525,260.284,449.052,263.758,444.768,263.758z"
       id="path3511" /></g><g
     id="g3513" /><g
     id="g3515" /><g
     id="g3517" /><g
     id="g3519" /><g
     id="g3521" /><g
     id="g3523" /><g
     id="g3525" /><g
     id="g3527" /><g
     id="g3529" /><g
     id="g3531" /><g
     id="g3533" /><g
     id="g3535" /><g
     id="g3537" /><g
     id="g3539" /><g
     id="g3541" /></svg>