<?xml version="1.0" encoding="UTF-8" standalone="no"?>
<!-- Generator: Adobe Illustrator 19.0.0, SVG Export Plug-In . SVG Version: 6.00 Build 0)  -->

<svg
   xmlns:dc="http://purl.org/dc/elements/1.1/"
   xmlns:cc="http://creativecommons.org/ns#"
   xmlns:rdf="http://www.w3.org/1999/02/22-rdf-syntax-ns#"
   xmlns:svg="http://www.w3.org/2000/svg"
   xmlns="http://www.w3.org/2000/svg"
   xmlns:sodipodi="http://sodipodi.sourceforge.net/DTD/sodipodi-0.dtd"
   xmlns:inkscape="http://www.inkscape.org/namespaces/inkscape"
   version="1.1"
   id="Layer_1"
   x="0px"
   y="0px"
   viewBox="0 0 512 512"
   style="enable-background:new 0 0 512 512;"
   xml:space="preserve"
   inkscape:version="0.91 r13725"
   sodipodi:docname="in-love.svg"><metadata
     id="metadata3657"><rdf:RDF><cc:Work
         rdf:about=""><dc:format>image/svg+xml</dc:format><dc:type
           rdf:resource="http://purl.org/dc/dcmitype/StillImage" /></cc:Work></rdf:RDF></metadata><defs
     id="defs3655" /><sodipodi:namedview
     pagecolor="#ffffff"
     bordercolor="#666666"
     borderopacity="1"
     objecttolerance="10"
     gridtolerance="10"
     guidetolerance="10"
     inkscape:pageopacity="0"
     inkscape:pageshadow="2"
     inkscape:window-width="1366"
     inkscape:window-height="705"
     id="namedview3653"
     showgrid="false"
     inkscape:zoom="0.26"
     inkscape:cx="102.8631"
     inkscape:cy="256"
     inkscape:window-x="0"
     inkscape:window-y="30"
     inkscape:window-maximized="1"
     inkscape:current-layer="Layer_1" /><circle
     style="fill:#4caf50;fill-opacity:1"
     cx="256"
     cy="256"
     id="circle3607"
     r="206" /><circle
     style="fill:#ffdc8e;fill-opacity:1"
     cx="256"
     cy="256"
     r="142.222"
     id="circle3611" /><path
     style="fill:#C92F00;"
     d="M311.953,303.957c-2.824-1.586-6.375-0.991-8.528,1.433c-3.824,4.299-21.064,10.355-47.426,10.355  c-26.36,0-43.603-6.056-47.426-10.357c-2.155-2.422-5.704-3.019-8.53-1.429c-2.825,1.586-4.165,4.927-3.217,8.026  c7.511,24.579,31.846,41.746,59.173,41.746c27.331,0,51.664-17.167,59.173-41.746C316.119,308.888,314.78,305.545,311.953,303.957z"
     id="path3615" /><path
     style="fill:#C92F00;"
     d="M223.18,221.663c0-11.535-9.35-20.885-20.885-20.885c-11.535,0-20.885,9.35-20.885,20.885  c0-11.535-9.35-20.885-20.885-20.885s-20.885,9.35-20.885,20.885c0,23.628,41.772,41.772,41.772,41.772  S223.18,244.658,223.18,221.663z"
     id="path3619" /><path
     style="fill:#c92f00;fill-opacity:1"
     d="M372.364,221.663c0-11.535-9.35-20.885-20.885-20.885s-20.885,9.35-20.885,20.885  c0-11.535-9.35-20.885-20.885-20.885c-11.535,0-20.885,9.35-20.885,20.885c0,23.628,41.772,41.772,41.772,41.772  S372.364,244.658,372.364,221.663z"
     id="path3621" /><g
     id="g3623" /><g
     id="g3625" /><g
     id="g3627" /><g
     id="g3629" /><g
     id="g3631" /><g
     id="g3633" /><g
     id="g3635" /><g
     id="g3637" /><g
     id="g3639" /><g
     id="g3641" /><g
     id="g3643" /><g
     id="g3645" /><g
     id="g3647" /><g
     id="g3649" /><g
     id="g3651" /></svg>